<?xml version="1.0" standalone="no"?><!DOCTYPE svg PUBLIC "-//W3C//DTD SVG 1.1//EN" "http://www.w3.org/Graphics/SVG/1.1/DTD/svg11.dtd"><svg t="1778943036045" class="icon" viewBox="0 0 1024 1024" version="1.1" xmlns="http://www.w3.org/2000/svg" p-id="2256" xmlns:xlink="http://www.w3.org/1999/xlink" width="200" height="200"><path d="M58.4 59.03m314.11 0l271.78 0q314.11 0 314.11 314.11l0 271.78q0 314.11-314.11 314.11l-271.78 0q-314.11 0-314.11-314.11l0-271.78q0-314.11 314.11-314.11Z" fill="#D6EFAF" p-id="2257"></path><path d="M548.59 923.03h243.17V859.8h91.36V307.27l-2.6-2.42h2.56L736.32 167.03v4.13H369.34v63.23h-91.35v688.64H548.59z" fill="#606060" p-id="2258"></path><path d="M494.59 878.03H223.99V189.39H592.17L737.76 325.5v552.53H494.59z" fill="#F0B9A0" p-id="2259"></path><path d="M494.59 870.53H224l7.5 7.5V217.41c0-8.85 0.71-18 0-26.87v-1.15l-7.5 7.5h368.17l-5.31-2.2L636 240.58l78.36 73.26 18.15 17-2.2-5.31v529.9c0 7.09-0.69 14.59 0 21.66v0.94l7.5-7.5H494.59c-9.65 0-9.66 15 0 15h243.17a7.6 7.6 0 0 0 7.5-7.5V342.48c0-5.59 0.36-11.33 0-16.92-0.29-4.58-4-7.09-7.12-10l-17.69-16.53-55.66-52-52.09-48.7-13.63-12.74c-1.47-1.38-2.88-2.86-4.91-3.43s-4.75-0.27-6.92-0.27H224a7.61 7.61 0 0 0-7.5 7.5V850c0 9-0.25 17.94 0 26.88v1.14a7.61 7.61 0 0 0 7.5 7.5h270.59c9.66 0.01 9.67-14.99 0-14.99z" fill="#231815" p-id="2260"></path><path d="M585.95 814.8H315.34V126.16H683.52l145.6 136.11V814.8H585.95z" fill="#FFFFFF" p-id="2261"></path><path d="M682.32 122.03v137.82h146.76" fill="#F9E8BE" p-id="2262"></path><path d="M586 807.3H315.34l7.5 7.5V154.18c0-8.86 0.7-18 0-26.88v-1.15l-7.5 7.5h368.18l-5.3-2.19 49.08 45.89 78.36 73.25 18.15 17-2.19-5.3v529.89c0 7.1-0.7 14.59 0 21.66v0.95l7.5-7.5H586c-9.65 0-9.67 15 0 15h243.12a7.61 7.61 0 0 0 7.5-7.5V279.25c0-5.6 0.36-11.33 0-16.92-0.3-4.58-4-7.1-7.13-10l-17.68-16.54-55.66-52-52.09-48.7-13.63-12.74c-1.48-1.38-2.88-2.86-4.92-3.43s-4.75-0.27-6.92-0.27H315.34a7.61 7.61 0 0 0-7.5 7.5v660.62c0 9-0.26 17.94 0 26.88v1.15a7.61 7.61 0 0 0 7.5 7.5H586c9.6 0 9.62-15 0-15z" fill="#231815" p-id="2263"></path><path d="M674.82 122v137.85a7.61 7.61 0 0 0 7.5 7.5h146.76c9.66 0 9.67-15 0-15H682.32l7.5 7.5V122c0-9.65-15-9.66-15 0z" fill="#231815" p-id="2264"></path><path d="M409.4 559.99m36.68 0l255.1 0q36.68 0 36.68 36.68l0 91.68q0 36.68-36.68 36.68l-255.1 0q-36.68 0-36.68-36.68l0-91.68q0-36.68 36.68-36.68Z" fill="#F8E9AC" p-id="2265"></path><path d="M701.19 717.53H446.24a29.46 29.46 0 0 1-24.55-13.14c-7-10.88-4.79-26.12-4.79-38.49v-54.53-14.19c0.11-9.73 4.41-19 12.6-24.54s16.73-5.15 25.91-5.15H690c7.64 0 15.75-0.72 22.92 2.39a29.58 29.58 0 0 1 17.49 26.83c0.06 3.8 0 7.61 0 11.42v74.76c0 5.54 0.08 10.89-2 16.2a29.56 29.56 0 0 1-27.17 18.44c-9.64 0.19-9.68 15.19 0 15 25.47-0.48 44.12-20.93 44.17-46v-47c0-14.14 0.17-28.29 0-42.43A44.82 44.82 0 0 0 701 552.49c-21.63-0.29-43.29 0-64.92 0h-116.8c-24 0-48-0.1-72.06 0-23.13 0.11-42.62 16.73-45.08 40-1.33 12.52-0.24 25.63-0.24 38.19v52.21c0 6.62 0.09 13.2 2.31 19.56a44.94 44.94 0 0 0 29.05 28.19c8.14 2.51 17 1.89 25.42 1.89h242.51c9.65 0 9.66-15 0-15z" fill="#231815" p-id="2266"></path><path d="M409.4 388.31m36.68 0l255.1 0q36.68 0 36.68 36.68l0 40.7q0 36.68-36.68 36.68l-255.1 0q-36.68 0-36.68-36.68l0-40.7q0-36.68 36.68-36.68Z" fill="#68BCAC" p-id="2267"></path><path d="M701.19 494.87h-227c-17.15 0-40.26 3.91-51.73-12.05-8.33-11.58-5.53-28.91-5.53-42.36 0-5.15-0.08-10.31 0-15.46a29.47 29.47 0 0 1 14.27-25.09c7-4.18 14.36-4.1 22.13-4.1H693c6.87 0 13.69-0.4 20.15 2.54a29.46 29.46 0 0 1 17.07 23.84c0.45 5.25 0.1 10.65 0.1 15.91v23c0 6.66-0.34 13-3.76 19a29.52 29.52 0 0 1-25.41 14.83c-9.64 0.18-9.68 15.18 0 15a44.81 44.81 0 0 0 44.17-44.66c0.15-13.15 0.08-26.32 0-39.47-0.14-23.95-18.59-43.92-42.77-44.91-4.73-0.19-9.5 0-14.23 0H504.66c-19.24 0-38.48-0.11-57.72 0-19.65 0.1-37.28 12.36-43.15 31.36-2.09 6.77-1.89 13.73-1.89 20.72v24.5c0 6.89-0.23 13.77 1.71 20.48a44.28 44.28 0 0 0 22.9 27.41c8.76 4.2 17.59 4.59 27 4.59h247.68c9.65-0.08 9.66-15.08 0-15.08z" fill="#231815" p-id="2268"></path><path d="M406.58 230.03m36.68 0l131.72 0q36.68 0 36.68 36.68l0 40.7q0 36.68-36.68 36.68l-131.72 0q-36.68 0-36.68-36.68l0-40.7q0-36.68 36.68-36.68Z" fill="#68BCAC" p-id="2269"></path><path d="M575 336.6h-96.25c-11.8 0-23.62 0.17-35.42 0-12.56-0.19-24.15-8.14-27.89-20.35-2.34-7.61-1.36-16.44-1.36-24.3 0-8.28-0.1-16.57 0-24.86 0.15-12.22 7.34-23.55 19.07-27.78 5.17-1.87 10.31-1.78 15.66-1.78h20.92c34.72 0 69.46-0.17 104.18 0 9.54 0.05 18.47 3.79 24.36 11.52s5.9 16.7 5.9 26v28.43c0 10.38-2.43 20-11 26.82a29.77 29.77 0 0 1-18.17 6.3c-9.64 0.18-9.68 15.18 0 15 16.53-0.31 32.34-9.46 39.59-24.61 4.71-9.84 4.59-19.85 4.59-30.42v-28.79c-0.08-14.46-6.26-27.76-17.9-36.51-13.95-10.48-30.89-8.74-47.24-8.74H489c-15 0-30-0.09-45 0-12.77 0.08-25.25 5.12-33.73 14.86-8.33 9.58-11.16 20.91-11.16 33.31v30.72c0 11.65 1.49 22.64 8.74 32.28a44.94 44.94 0 0 0 35.8 17.9c4.74 0.06 9.5 0 14.25 0H575c9.64 0 9.65-15 0-15z" fill="#231815" p-id="2270"></path></svg>